# xmcd
#
# Track frame offsets: 
#        150
#        20287
#        20687
#        62907
#        67704
#        70227
#        91972
#        107218
#        107724
#        129815
#        155019
#        156030
#        181095
#        181612
#        198079
#        212353
#        212821
#        242381
#        242682
#        258364
#        267882
#        292700
#        293997
#        317916
#
# Disc length: 4568 seconds
#
# Revision: 2
# Processed by: cddbd v1.5.2PL0 Copyright (c) Steve Scherf et al.
# Submitted via: ExactAudioCopy v1.1
#
DISCID=4311d618
DTITLE=Miles Davis - Miles Ahead (Original Motion Picture Soundtrack)
DYEAR=2016
DGENRE=Soundtrack
TTITLE0=Miles Ahead
TTITLE1=Don Cheadle - Dialogue: "It Takes A Long Time..."
TTITLE2=So What
TTITLE3=Taylor Eigsti - Taylor Made
TTITLE4=Don Cheadle - Dialogue: "Listen, You Talk Too Goddam Much..."
TTITLE5=Solea (Excerpt)
TTITLE6=Seven Steps To Heaven (Edit)
TTITLE7=Don Cheadle - Dialogue: "If You Gonna Tell A Story..."
TTITLE8=Nefertiti (Edit)
TTITLE9=Frelon Brun
TTITLE10=Don Cheadle - Dialogue: "Sometimes You Have These Thoughts...
TTITLE10="
TTITLE11=Duran (Take 6) (Edit)
TTITLE12=Don Cheadle - Dialogue: "You Own My Music..."
TTITLE13=Go Ahead John (Part Two C)
TTITLE14=Black Satin (Edit)
TTITLE15=Don Cheadle - Dialogue: "Be Musical About This Shit..."
TTITLE16=Prelude #II
TTITLE17=Don Cheadle - Dialogue: "Y'all Listening To Them..."
TTITLE18=Robert Glasper, Keyon Harrold, Marcus Stricland - Junior's Ja
TTITLE18=m
TTITLE19=Robert Glasper, Keyon Harrold, Elena Pinderhughes - Francesse
TTITLE19=nce
TTITLE20=Back Seat Betty (Excerpt)
TTITLE21=Don Cheadle - Dialogue: "I Don't Like The Word Jazz..."
TTITLE22=Don Cheadle, Robert Glasper, Gary Clark Jr., Herbie Hancock, 
TTITLE22=Keyon Harrold, Antonio Sanchez, Esperanza Spaulding, Wayne Sh
TTITLE22=orter - What's Wrong With That?
TTITLE23=Robert Glasper, Keyon Harrold, Pharoahe Monch - Gone 2015
EXTD=
EXTT0=
EXTT1=
EXTT2=
EXTT3=
EXTT4=
EXTT5=
EXTT6=
EXTT7=
EXTT8=
EXTT9=
EXTT10=
EXTT11=
EXTT12=
EXTT13=
EXTT14=
EXTT15=
EXTT16=
EXTT17=
EXTT18=
EXTT19=
EXTT20=
EXTT21=
EXTT22=
EXTT23=
PLAYORDER=
